<?xml version="1.0" standalone="no"?>
<!DOCTYPE svg PUBLIC "-//W3C//DTD SVG 20010904//EN"
 "http://www.w3.org/TR/2001/REC-SVG-20010904/DTD/svg10.dtd">
<svg version="1.0" xmlns="http://www.w3.org/2000/svg"
 width="700.000000pt" height="700.000000pt" viewBox="0 0 700.000000 700.000000"
 preserveAspectRatio="xMidYMid meet">
<metadata>
Created by potrace 1.11, written by Peter Selinger 2001-2013
</metadata>
<g transform="translate(0.000000,700.000000) scale(0.100000,-0.100000)"
fill="#000000" stroke="none">
<path d="M3490 6391 c-8 -10 -42 -48 -75 -83 -99 -107 -117 -128 -216 -258
-105 -139 -203 -284 -264 -393 -106 -192 -186 -367 -258 -568 -42 -116 -109
-347 -122 -420 -3 -18 -8 -35 -10 -38 -2 -4 -6 -27 -10 -51 -3 -25 -10 -67
-15 -95 -13 -73 -21 -124 -26 -175 -2 -25 -6 -61 -9 -81 l-5 -35 86 -50 c48
-27 99 -56 115 -65 194 -110 510 -354 713 -549 54 -52 102 -95 106 -95 4 0 46
36 92 80 236 224 434 379 693 540 95 59 125 77 187 110 l47 25 -4 47 c-15 180
-55 435 -84 531 -5 17 -8 32 -6 32 3 0 0 11 -5 25 -5 14 -12 36 -14 48 -9 44
-56 194 -90 289 -128 353 -320 692 -559 988 -97 119 -227 260 -240 260 -7 0
-19 -9 -27 -19z"/>
<path d="M604 4082 c-21 -3 -21 -7 -18 -109 7 -241 33 -446 89 -698 14 -60 30
-126 36 -145 5 -19 12 -42 14 -50 6 -28 74 -227 101 -296 128 -332 318 -658
558 -958 72 -91 338 -366 426 -441 354 -304 789 -549 1215 -687 60 -19 157
-47 185 -53 8 -1 33 -8 55 -14 22 -6 84 -19 138 -30 l97 -19 108 23 c212 45
442 114 607 182 319 131 654 332 918 551 112 93 339 314 410 401 28 35 60 73
71 85 78 90 208 275 298 426 315 530 481 1100 502 1728 4 112 9 104 -59 105
-36 0 -269 -13 -295 -17 -14 -2 -51 -7 -84 -11 -65 -8 -76 -9 -196 -31 -219
-39 -531 -133 -697 -209 -17 -8 -34 -15 -37 -15 -8 0 -257 -122 -311 -153
-461 -259 -887 -646 -1175 -1066 -30 -44 -57 -80 -60 -81 -3 0 -13 12 -22 28
-9 15 -53 77 -99 137 -469 628 -1104 1070 -1844 1285 -102 30 -242 63 -310 74
-36 5 -118 19 -125 21 -5 1 -96 13 -155 20 -26 3 -195 14 -290 19 -16 0 -40 0
-51 -2z"/>
</g>
</svg>
